# xmcd
#
# Track frame offsets:
# 300
# 2987
# 19194
# 30047
# 46564
# 66238
#
# Disc length: 1173 seconds
#
#
# Revision: 2
# Processed by: cddbd v1.5.2PL0 Copyright (c) Steve Scherf et al.
# Submitted via: FreeRIP 2.942 
#
DISCID=3b049106
DTITLE=Sympathy - Abyssal Throne
DYEAR=2005
DGENRE=Technical Death Metal
TTITLE0=Depths Of The Earth
TTITLE1=Insipid
TTITLE2=Immolation Of The Dragon
TTITLE3=Ascendency
TTITLE4=Occupy
TTITLE5=Torn Into Enthrallment
EXTD=www.RealmofDisease.com\nTrack 6 is a Suffocation cover\nAlbum recorded before Arcane Path\nLFP\nYEAR: 2005
EXTT0=
EXTT1=
EXTT2=
EXTT3=
EXTT4=
EXTT5=
PLAYORDER=
